<svg width="59" height="57" viewBox="0 0 59 57" fill="none" xmlns="http://www.w3.org/2000/svg">
<g opacity="0.1">
<path d="M40.2405 30.2068L43.1143 27.3234C43.3971 27.0397 43.3971 26.58 43.1143 26.2963L31.6944 14.8392C31.4266 14.5705 31.2758 14.2059 31.2758 13.8257V8.12661C31.2758 7.94804 31.491 7.85858 31.6169 7.98496L50.6911 27.1206C50.9551 27.3855 50.9551 27.8147 50.6911 28.0799L30.2492 48.5881C29.9852 48.8529 29.557 48.8529 29.2931 48.5881L8.85082 28.0795C8.58683 27.8147 8.58683 27.3851 8.85082 27.1203L27.925 7.98532C28.051 7.85893 28.2661 7.9484 28.2661 8.12697V13.826C28.2661 14.2062 28.1157 14.5708 27.8475 14.84L16.4276 26.2966C16.1449 26.5803 16.1449 27.0401 16.4276 27.3237L19.3014 30.2068C19.5842 30.4904 20.0424 30.4904 20.3252 30.2068L27.9933 22.514C28.0938 22.4131 28.2661 22.4845 28.2661 22.6272V27.8949C28.2661 28.3614 28.0814 28.8091 27.7523 29.1389L23.5065 33.398C23.2238 33.6817 23.2238 34.1414 23.5065 34.4251L29.2591 40.1962C29.5418 40.4799 30.0001 40.4799 30.2828 40.1962L36.0351 34.4254C36.3178 34.1418 36.3178 33.682 36.0351 33.3984L31.7893 29.1385C31.4605 28.8087 31.2758 28.3611 31.2758 27.8946V22.6272C31.2758 22.4845 31.4478 22.4128 31.5487 22.514L39.2167 30.2068C39.4995 30.4904 39.9578 30.4904 40.2405 30.2068Z" fill="#BD1622"/>
<path d="M58.6807 28.2978L30.2823 56.7878C30.0003 57.0707 29.5427 57.0707 29.2607 56.7878L0.861919 28.2978C0.579881 28.0149 0.579881 27.5558 0.861919 27.2729L28.0012 0.0460592C28.0989 -0.051925 28.2663 0.017303 28.2663 0.156114V4.09891C28.2663 4.29098 28.1902 4.47558 28.0547 4.61156L5.46617 27.2729C5.18414 27.5558 5.18414 28.0149 5.46617 28.2978L29.2607 52.1687C29.5427 52.4516 30.0003 52.4516 30.2823 52.1687L54.0764 28.2978C54.3585 28.0149 54.3585 27.5558 54.0764 27.2729L31.4876 4.61085C31.3521 4.47487 31.276 4.29062 31.276 4.0982V0.156114C31.276 0.017303 31.4434 -0.05228 31.541 0.0460592L58.6807 27.2732C58.9627 27.5562 58.9627 28.0152 58.6807 28.2982V28.2978Z" fill="black"/>
</g>
</svg>
