<svg width="48" height="48" viewBox="0 0 48 48" fill="none" xmlns="http://www.w3.org/2000/svg">
<path d="M16.7803 36.9795V16.6595C16.7803 15.8595 17.0203 15.0795 17.4603 14.4195L22.9203 6.29946C23.7803 4.99946 25.9203 4.07946 27.7403 4.75946C29.7003 5.41946 31.0003 7.61946 30.5803 9.57946L29.5403 16.1195C29.4603 16.7195 29.6203 17.2595 29.9603 17.6795C30.3003 18.0595 30.8003 18.2995 31.3403 18.2995H39.5603C41.1403 18.2995 42.5003 18.9395 43.3003 20.0595C44.0603 21.1395 44.2003 22.5395 43.7003 23.9595L38.7803 38.9395C38.1603 41.4195 35.4603 43.4395 32.7803 43.4395H24.9803C23.6403 43.4395 21.7603 42.9795 20.9003 42.1195L18.3403 40.1395C17.3603 39.3995 16.7803 38.2195 16.7803 36.9795Z" fill="#BDBDBD"/>
<path d="M10.42 12.7598H8.36C5.26 12.7598 4 13.9598 4 16.9198V37.0398C4 39.9998 5.26 41.1998 8.36 41.1998H10.42C13.52 41.1998 14.78 39.9998 14.78 37.0398V16.9198C14.78 13.9598 13.52 12.7598 10.42 12.7598Z" fill="#BDBDBD"/>
</svg>
