<svg width="32" height="32" viewBox="0 0 32 32" fill="none" xmlns="http://www.w3.org/2000/svg">
<path d="M20.8132 7.33401V20.8807C20.8132 21.414 20.6532 21.934 20.3599 22.374L16.7199 27.7873C16.1465 28.654 14.7199 29.2673 13.5065 28.814C12.1999 28.374 11.3332 26.9073 11.6132 25.6007L12.3065 21.2407C12.3599 20.8407 12.2532 20.4807 12.0265 20.2007C11.7999 19.9473 11.4665 19.7873 11.1065 19.7873H5.62652C4.57319 19.7873 3.66652 19.3607 3.13319 18.614C2.62652 17.894 2.53319 16.9607 2.86652 16.014L6.14652 6.02734C6.55986 4.37401 8.35986 3.02734 10.1465 3.02734H15.3465C16.2399 3.02734 17.4932 3.33401 18.0665 3.90734L19.7732 5.22734C20.4265 5.73401 20.8132 6.50734 20.8132 7.33401Z" fill="#BD1722"/>
<path d="M25.0532 23.4799H26.4265C28.4932 23.4799 29.3332 22.6799 29.3332 20.7065V7.30654C29.3332 5.3332 28.4932 4.5332 26.4265 4.5332H25.0532C22.9865 4.5332 22.1465 5.3332 22.1465 7.30654V20.7199C22.1465 22.6799 22.9865 23.4799 25.0532 23.4799Z" fill="#BD1722"/>
</svg>
