<svg width="36" height="36" viewBox="0 0 36 36" fill="none" xmlns="http://www.w3.org/2000/svg">
<path d="M35.8693 17.4912L18.3159 35.1012C18.1415 35.2761 17.8587 35.2761 17.6844 35.1012L0.130748 17.4912C-0.0435827 17.3163 -0.0435827 17.0326 0.130748 16.8577L16.9059 0.0284698C16.9663 -0.0320955 17.0697 0.0106952 17.0697 0.096496V2.53359C17.0697 2.65231 17.0227 2.76642 16.9389 2.85046L2.9767 16.8577C2.80236 17.0326 2.80236 17.3163 2.9767 17.4912L17.6844 32.2461C17.8587 32.421 18.1415 32.421 18.3159 32.2461L33.0233 17.4912C33.1976 17.3163 33.1976 17.0326 33.0233 16.8577L19.0609 2.85002C18.9771 2.76598 18.9301 2.65209 18.9301 2.53315V0.096496C18.9301 0.0106952 19.0335 -0.0323149 19.0939 0.0284698L35.8693 16.8579C36.0436 17.0328 36.0436 17.3166 35.8693 17.4915V17.4912Z" fill="#1A1A1A"/>
</svg>
