<svg width="32" height="32" viewBox="0 0 32 32" fill="none" xmlns="http://www.w3.org/2000/svg">
<path d="M11.1865 24.653V11.1063C11.1865 10.573 11.3465 10.053 11.6399 9.61297L15.2799 4.19964C15.8532 3.33297 17.2799 2.71964 18.4932 3.17297C19.7999 3.61297 20.6665 5.07964 20.3865 6.38631L19.6932 10.7463C19.6399 11.1463 19.7465 11.5063 19.9732 11.7863C20.1999 12.0396 20.5332 12.1996 20.8932 12.1996H26.3732C27.4265 12.1996 28.3332 12.6263 28.8665 13.373C29.3732 14.093 29.4665 15.0263 29.1332 15.973L25.8532 25.9596C25.4399 27.613 23.6399 28.9596 21.8532 28.9596H16.6532C15.7599 28.9596 14.5065 28.653 13.9332 28.0796L12.2265 26.7596C11.5732 26.2663 11.1865 25.4796 11.1865 24.653Z" fill="#219653"/>
<path d="M6.9465 8.50586H5.57317C3.5065 8.50586 2.6665 9.30586 2.6665 11.2792V24.6925C2.6665 26.6659 3.5065 27.4659 5.57317 27.4659H6.9465C9.01317 27.4659 9.85317 26.6659 9.85317 24.6925V11.2792C9.85317 9.30586 9.01317 8.50586 6.9465 8.50586Z" fill="#219653"/>
</svg>
