<svg width="71" height="85" viewBox="0 0 71 85" fill="none" xmlns="http://www.w3.org/2000/svg">
<path d="M41.7459 84.8969C40.8359 84.8969 40.0672 84.7098 39.4396 84.3358C38.8119 83.9617 38.3334 83.4539 38.003 82.8119C37.673 82.1703 37.5078 81.4477 37.5078 80.6451C37.5078 79.8424 37.6713 79.1361 37.9983 78.4966C38.3253 77.8571 38.7967 77.3519 39.4124 76.9799C40.0282 76.6084 40.773 76.4223 41.6474 76.4223C42.5218 76.4223 43.3036 76.6059 43.9223 76.9723C44.5411 77.3391 45.0078 77.8409 45.3229 78.4774C45.638 79.1144 45.7955 79.8365 45.7955 80.6442C45.7955 81.452 45.638 82.1681 45.3229 82.8076C45.0073 83.4471 44.5495 83.9549 43.9491 84.3315C43.3482 84.7081 42.6135 84.8964 41.7455 84.8964L41.7459 84.8969ZM41.8084 84.0793C42.5282 84.0793 43.1274 83.9293 43.6059 83.6294C44.0845 83.3295 44.4417 82.9209 44.6765 82.4029C44.9114 81.8853 45.029 81.299 45.029 80.6447C45.029 79.9903 44.9101 79.3985 44.6723 78.883C44.4345 78.3675 44.0773 77.9649 43.6017 77.6752C43.1257 77.3855 42.5341 77.2402 41.8262 77.2402C41.1183 77.2402 40.4911 77.3902 40.015 77.6901C39.539 77.9901 39.1852 78.3965 38.9534 78.9094C38.7215 79.4224 38.6056 80.0009 38.6056 80.6451C38.6056 81.2892 38.7262 81.878 38.9669 82.3956C39.2077 82.9137 39.5649 83.3235 40.0375 83.626C40.5102 83.9285 41.1004 84.0793 41.8084 84.0793ZM45.029 84.6741V78.4894H44.9398V73.9696H45.9658V84.6741H45.029Z" fill="black"/>
<path d="M52.1842 84.8969C51.2266 84.8969 50.4146 84.7158 49.7487 84.3541C49.0824 83.9924 48.5741 83.4918 48.2229 82.8523C47.8717 82.2129 47.6968 81.4771 47.6968 80.6446C47.6968 79.8122 47.8751 79.07 48.2318 78.4331C48.5886 77.7962 49.1016 77.302 49.7708 76.9501C50.4401 76.5982 51.2444 76.4222 52.1842 76.4222C53.1239 76.4222 53.955 76.602 54.6243 76.9612C55.2935 77.3207 55.8019 77.8175 56.1501 78.4519C56.4979 79.0862 56.672 79.8173 56.672 80.6446C56.672 81.472 56.4966 82.2342 56.1454 82.8711C55.7942 83.508 55.2829 84.0047 54.6111 84.3618C53.9389 84.7183 53.1299 84.8969 52.1846 84.8969H52.1842ZM52.1842 84.0644C53.3201 84.0644 54.1695 83.7474 54.7313 83.1131C55.2935 82.4787 55.5742 81.656 55.5742 80.6451C55.5742 79.6341 55.2918 78.7918 54.7266 78.1771C54.1614 77.5627 53.3138 77.2551 52.1837 77.2551C51.4164 77.2551 50.7832 77.4 50.2834 77.6901C49.7836 77.9798 49.4103 78.379 49.1636 78.8868C48.9168 79.3951 48.7933 79.9809 48.7933 80.6451C48.7933 81.6761 49.0803 82.5034 49.654 83.128C50.2278 83.7525 51.0711 84.0648 52.1833 84.0648L52.1842 84.0644Z" fill="black"/>
<path d="M58.4916 84.6736V76.6451H59.4284V78.4514H59.5176V84.6736H58.4916ZM64.2283 84.6736L64.2462 79.3585C64.2462 78.6943 64.0292 78.1677 63.5947 77.7787C63.1603 77.3898 62.5955 77.1951 61.8995 77.1951C61.2035 77.1951 60.6179 77.397 60.1775 77.8009C59.7371 78.2048 59.5171 78.7437 59.5171 79.4177L58.8033 79.1203C58.8033 78.6001 58.946 78.1379 59.2313 77.734C59.5167 77.3301 59.9078 77.0119 60.4047 76.7788C60.9011 76.5458 61.471 76.4295 62.1131 76.4295C62.6898 76.4295 63.2164 76.5313 63.6924 76.7341C64.168 76.9373 64.5489 77.2432 64.8343 77.6522C65.1197 78.0612 65.2624 78.5729 65.2624 79.1872L65.2445 84.6732H64.2275L64.2283 84.6736ZM69.9562 84.6736L69.974 79.2767C69.974 78.6274 69.7523 78.1183 69.3094 77.7489C68.8661 77.38 68.3144 77.1951 67.6545 77.1951C67.2799 77.1951 66.9096 77.2671 66.5436 77.4107C66.1779 77.5542 65.873 77.7873 65.6293 78.1093C65.3851 78.4314 65.2637 78.8677 65.2637 79.4177L64.5409 79.321C64.5171 78.7365 64.6462 78.2269 64.929 77.7932C65.2114 77.3595 65.6038 77.0238 66.1066 76.7861C66.609 76.5484 67.1818 76.4295 67.8239 76.4295C68.7697 76.4295 69.5353 76.6723 70.1214 77.158C70.707 77.6437 71 78.3079 71 79.1501L70.9821 84.6736H69.9562Z" fill="black"/>
<path d="M0.0339355 74.5933H9.32383V76.5215H2.85878V78.7335H8.91615V80.6617H2.85878V84.7167H0.0339355V74.5933Z" fill="#BD1622"/>
<path d="M10.5032 77.1171H12.9785V78.6057H13.0078C13.9395 77.443 14.6678 76.9186 16.124 76.9186C16.4153 76.9186 16.7648 76.9326 17.0557 76.9893V79.3286C16.5898 79.2008 16.124 79.102 15.6433 79.102C13.8958 79.102 13.066 79.9668 13.066 81.4413V84.7162H10.5032V77.1167V77.1171Z" fill="#BD1622"/>
<path d="M26.571 82.448C25.9158 84.2484 24.3483 85 22.2798 85C19.556 85 17.7317 83.7807 17.7317 80.9169C17.7317 78.0531 19.556 76.8338 22.2798 76.8338C25.2605 76.8338 26.6993 78.4928 26.6993 81.3565V81.5832H20.0699V81.6117C20.0699 82.3347 20.7379 83.4407 22.2798 83.4407C23.192 83.4407 23.8345 83.1003 24.1556 82.448H26.571ZM24.3611 80.1087V80.0806C24.3611 79.6695 23.8859 78.3935 22.2284 78.3935C20.4427 78.3935 20.0699 79.8965 20.0699 80.0806V80.1087H24.3611Z" fill="#BD1622"/>
<path d="M36.4513 82.448C35.796 84.2484 34.2286 85 32.1601 85C29.4363 85 27.6119 83.7807 27.6119 80.9169C27.6119 78.0531 29.4363 76.8338 32.1601 76.8338C35.1408 76.8338 36.5795 78.4928 36.5795 81.3565V81.5832H29.9501V81.6117C29.9501 82.3347 30.6181 83.4407 32.1601 83.4407C33.0722 83.4407 33.7147 83.1003 34.0358 82.448H36.4513ZM34.2413 80.1087V80.0806C34.2413 79.6695 33.7661 78.3935 32.1087 78.3935C30.323 78.3935 29.9501 79.8965 29.9501 80.0806V80.1087H34.2413Z" fill="#BD1622"/>
<path d="M47.5099 36.248L50.9585 32.7877C51.2978 32.4473 51.2978 31.8956 50.9585 31.5552L37.2543 17.8063C36.9328 17.4838 36.7519 17.0463 36.7519 16.59V9.75095C36.7519 9.53666 37.0101 9.4293 37.1613 9.58097L60.051 32.5445C60.3678 32.8623 60.3678 33.3774 60.051 33.6956L35.52 58.3061C35.2032 58.624 34.6893 58.624 34.3725 58.3061L9.84111 33.6952C9.52432 33.3774 9.52432 32.8619 9.84111 32.544L32.7308 9.58139C32.882 9.42973 33.1402 9.53709 33.1402 9.75138V16.5905C33.1402 17.0467 32.9597 17.4843 32.6378 17.8072L18.9335 31.5556C18.5942 31.896 18.5942 32.4478 18.9335 32.7882L22.3822 36.248C22.7215 36.5884 23.2715 36.5884 23.6108 36.248L32.8127 27.0163C32.9334 26.8953 33.1402 26.9809 33.1402 27.1522V33.4736C33.1402 34.0334 32.9185 34.5707 32.5236 34.9665L27.4285 40.0775C27.0892 40.4179 27.0892 40.9697 27.4285 41.3101L34.3318 48.2356C34.6711 48.576 35.221 48.576 35.5603 48.2356L42.4632 41.3105C42.8025 40.9701 42.8025 40.4184 42.4632 40.078L37.3681 34.966C36.9736 34.5702 36.7519 34.033 36.7519 33.4732V27.1522C36.7519 26.9809 36.9583 26.8949 37.0793 27.0163L46.2813 36.248C46.6206 36.5884 47.1706 36.5884 47.5099 36.248Z" fill="#BD1622"/>
<path d="M69.6387 33.9586L35.5596 68.1476C35.2211 68.4871 34.6721 68.4871 34.3336 68.1476L0.254086 33.9586C-0.0843697 33.619 -0.0843697 33.0682 0.254086 32.7286L32.8222 0.0554558C32.9394 -0.0621288 33.1403 0.0209473 33.1403 0.187525V4.91903C33.1403 5.14951 33.049 5.37105 32.8863 5.53422L5.77936 32.7286C5.4409 33.0682 5.4409 33.619 5.77936 33.9586L34.3336 62.6045C34.6721 62.944 35.2211 62.944 35.5596 62.6045L64.1134 33.9586C64.4519 33.619 64.4519 33.0682 64.1134 32.7286L37.006 5.53336C36.8433 5.37019 36.752 5.14908 36.752 4.91817V0.187525C36.752 0.0209473 36.9529 -0.0625548 37.0701 0.0554558L69.6387 32.7291C69.9771 33.0686 69.9771 33.6195 69.6387 33.959V33.9586Z" fill="black"/>
</svg>
